%TF.GenerationSoftware,KiCad,Pcbnew,10.0.5*%
%TF.CreationDate,2026-08-28T02:34:45+02:00*%
%TF.ProjectId,PCIexpress_x8_low,50434965-7870-4726-9573-735f78385f6c,rev?*%
%TF.SameCoordinates,Original*%
%TF.FileFunction,Component,L1,Top*%
%TF.FilePolarity,Positive*%
%FSLAX46Y46*%
G04 Gerber Fmt 4.6, Leading zero omitted, Abs format (unit mm)*
G04 Created by KiCad (PCBNEW 10.0.5) date 2026-08-28 02:34:45*
%MOMM*%
%LPD*%
G01*
G04 APERTURE LIST*
%TA.AperFunction,ComponentMain*%
%ADD10C,0.300000*%
%TD*%
%TA.AperFunction,ComponentOutline,Courtyard*%
%ADD11C,0.100000*%
%TD*%
%TA.AperFunction,ComponentPin*%
%ADD12P,0.360000X4X0.000000*%
%TD*%
%TA.AperFunction,ComponentPin*%
%ADD13C,0.100000*%
%TD*%
%TA.AperFunction,ComponentOutline,Footprint*%
%ADD14C,0.100000*%
%TD*%
G04 APERTURE END LIST*
D10*
%TO.C,C23*%
%TO.CFtp,C_1206_3216Metric*%
%TO.CVal,10uF*%
%TO.CLbN,Capacitor_SMD*%
%TO.CMnt,SMD*%
%TO.CRot,-135*%
X116625000Y-178125000D03*
D11*
X119057446Y-177311827D02*
X115811827Y-180557446D01*
X114192554Y-178938173D01*
X117438173Y-175692554D01*
X119057446Y-177311827D01*
D12*
%TO.P,C23,1*%
X117667983Y-177082017D03*
D13*
%TO.P,C23,2*%
X115582017Y-179167983D03*
%TD*%
D10*
%TO.C,C22*%
%TO.CFtp,C_1206_3216Metric*%
%TO.CVal,10uF*%
%TO.CLbN,Capacitor_SMD*%
%TO.CMnt,SMD*%
%TO.CRot,-135*%
X113625000Y-175125000D03*
D11*
X116057446Y-174311827D02*
X112811827Y-177557446D01*
X111192554Y-175938173D01*
X114438173Y-172692554D01*
X116057446Y-174311827D01*
D12*
%TO.P,C22,1*%
X114667983Y-174082017D03*
D13*
%TO.P,C22,2*%
X112582017Y-176167983D03*
%TD*%
D10*
%TO.C,J2*%
%TO.CFtp,PCIexpress_x8*%
%TO.CVal,PCIexpress_x8*%
%TO.CLbN,PCIexpress*%
%TO.CMnt,Other*%
%TO.CRot,0*%
X109625000Y-194125000D03*
D14*
X109775000Y-188525000D02*
X109775000Y-192725000D01*
X160475000Y-192725000D01*
X160475000Y-188525000D01*
X109775000Y-188525000D01*
D13*
%TO.P,J2,B1,+12V_B1*%
X110125000Y-190625000D03*
%TO.P,J2,B2,+12V_B2*%
X111125000Y-190625000D03*
%TO.P,J2,B3,+12V_B3*%
X112125000Y-190625000D03*
%TO.P,J2,B4,GND_B4*%
X113125000Y-190625000D03*
%TO.P,J2,B5,SMCLK_B5*%
X114125000Y-190625000D03*
%TO.P,J2,B6,SMDAT_B6*%
X115125000Y-190625000D03*
%TO.P,J2,B7,GND_B7*%
X116125000Y-190625000D03*
%TO.P,J2,B8,+3.3V_B8*%
X117125000Y-190625000D03*
%TO.P,J2,B9,~{TRST}_B9*%
X118125000Y-190625000D03*
%TO.P,J2,B10,+3.3V_aux_B10*%
X119125000Y-190625000D03*
%TO.P,J2,B11,~{WAKE}_B11*%
X120125000Y-190625000D03*
%TO.P,J2,B12,RSVD_B12*%
X123125000Y-190625000D03*
%TO.P,J2,B13,GND_B13*%
X124125000Y-190625000D03*
%TO.P,J2,B14,PETp0_B14*%
X125125000Y-190625000D03*
%TO.P,J2,B15,PETn0_B15*%
X126125000Y-190625000D03*
%TO.P,J2,B16,GND_B16*%
X127125000Y-190625000D03*
%TO.P,J2,B17,~{PRSNT2}_B17*%
X128125000Y-190125000D03*
%TO.P,J2,B18,GND_B18*%
X129125000Y-190625000D03*
%TO.P,J2,B19,PETp1_B19*%
X130125000Y-190625000D03*
%TO.P,J2,B20,PETn1_B20*%
X131125000Y-190625000D03*
%TO.P,J2,B21,GND_B21*%
X132125000Y-190625000D03*
%TO.P,J2,B22,GND_B22*%
X133125000Y-190625000D03*
%TO.P,J2,B23,PETp2_B23*%
X134125000Y-190625000D03*
%TO.P,J2,B24,PETn2_B24*%
X135125000Y-190625000D03*
%TO.P,J2,B25,GND_B25*%
X136125000Y-190625000D03*
%TO.P,J2,B26,GND_B26*%
X137125000Y-190625000D03*
%TO.P,J2,B27,PETp3_B27*%
X138125000Y-190625000D03*
%TO.P,J2,B28,PETn3_B28*%
X139125000Y-190625000D03*
%TO.P,J2,B29,GND_B29*%
X140125000Y-190625000D03*
%TO.P,J2,B30,RSVD_B30*%
X141125000Y-190625000D03*
%TO.P,J2,B31,~{PRSNT2}_B31*%
X142125000Y-190125000D03*
%TO.P,J2,B32,GND_B32*%
X143125000Y-190625000D03*
%TO.P,J2,B33,PETp4_B33*%
X144125000Y-190625000D03*
%TO.P,J2,B34,PETn4_B34*%
X145125000Y-190625000D03*
%TO.P,J2,B35,GND_B35*%
X146125000Y-190625000D03*
%TO.P,J2,B36,GND_B36*%
X147125000Y-190625000D03*
%TO.P,J2,B37,PETp5_B37*%
X148125000Y-190625000D03*
%TO.P,J2,B38,PETn5_B38*%
X149125000Y-190625000D03*
%TO.P,J2,B39,GND_B39*%
X150125000Y-190625000D03*
%TO.P,J2,B40,GND_B40*%
X151125000Y-190625000D03*
%TO.P,J2,B41,PETp6_B41*%
X152125000Y-190625000D03*
%TO.P,J2,B42,PETn6_B42*%
X153125000Y-190625000D03*
%TO.P,J2,B43,GND_B43*%
X154125000Y-190625000D03*
%TO.P,J2,B44,GND_B44*%
X155125000Y-190625000D03*
%TO.P,J2,B45,PETp7_B45*%
X156125000Y-190625000D03*
%TO.P,J2,B46,PETn7_B46*%
X157125000Y-190625000D03*
%TO.P,J2,B47,GND_B47*%
X158125000Y-190625000D03*
%TO.P,J2,B48,~{PRSNT2}_B48*%
X159125000Y-190125000D03*
%TO.P,J2,B49,GND_B49*%
X160125000Y-190625000D03*
%TD*%
D10*
%TO.C,R2*%
%TO.CFtp,R_1206_3216Metric*%
%TO.CVal,150R*%
%TO.CLbN,Resistor_SMD*%
%TO.CMnt,SMD*%
%TO.CRot,90*%
X105625000Y-170162500D03*
D11*
X106750000Y-167887500D02*
X106750000Y-172437500D01*
X104500000Y-172437500D01*
X104500000Y-167887500D01*
X106750000Y-167887500D01*
D12*
%TO.P,R2,1*%
X105625000Y-171625000D03*
D13*
%TO.P,R2,2*%
X105625000Y-168700000D03*
%TD*%
D10*
%TO.C,C18*%
%TO.CFtp,C_1206_3216Metric*%
%TO.CVal,10uF*%
%TO.CLbN,Capacitor_SMD*%
%TO.CMnt,SMD*%
%TO.CRot,-90*%
X91125000Y-174650000D03*
D11*
X92270000Y-172355000D02*
X92270000Y-176945000D01*
X89980000Y-176945000D01*
X89980000Y-172355000D01*
X92270000Y-172355000D01*
D12*
%TO.P,C18,1*%
X91125000Y-173175000D03*
D13*
%TO.P,C18,2*%
X91125000Y-176125000D03*
%TD*%
D10*
%TO.C,C19*%
%TO.CFtp,C_1206_3216Metric*%
%TO.CVal,10uF*%
%TO.CLbN,Capacitor_SMD*%
%TO.CMnt,SMD*%
%TO.CRot,-90*%
X87925000Y-174575000D03*
D11*
X89070000Y-172280000D02*
X89070000Y-176870000D01*
X86780000Y-176870000D01*
X86780000Y-172280000D01*
X89070000Y-172280000D01*
D12*
%TO.P,C19,1*%
X87925000Y-173100000D03*
D13*
%TO.P,C19,2*%
X87925000Y-176050000D03*
%TD*%
D10*
%TO.C,D2*%
%TO.CFtp,LED_1206_3216Metric*%
%TO.CVal,LED*%
%TO.CLbN,LED_SMD*%
%TO.CMnt,SMD*%
%TO.CRot,90*%
X105745000Y-175772500D03*
D11*
X106870000Y-173497500D02*
X106870000Y-178047500D01*
X104620000Y-178047500D01*
X104620000Y-173497500D01*
X106870000Y-173497500D01*
D12*
%TO.P,D2,1,K_1*%
X105745000Y-177172500D03*
D13*
%TO.P,D2,2,A_2*%
X105745000Y-174372500D03*
%TD*%
D10*
%TO.C,J3*%
%TO.CFtp,AMPHENOL_ME1008410201031*%
%TO.CVal,ME1008410201031*%
%TO.CLbN,ME1008410201031*%
%TO.CMnt,SMD*%
%TO.CRot,-90*%
X71025000Y-159372500D03*
D11*
X77835000Y-141827500D02*
X77835000Y-176917500D01*
X64215000Y-176917500D01*
X64215000Y-141827500D01*
X77835000Y-141827500D01*
D12*
%TO.P,J3,A1,A1_A1*%
X73175000Y-173225000D03*
D13*
%TO.P,J3,*%
X70025000Y-144100000D03*
X71025000Y-174645000D03*
%TO.P,J3,A2,A2_A2*%
X73175000Y-172625000D03*
%TO.P,J3,A3,A3_A3*%
X73175000Y-172025000D03*
%TO.P,J3,A4,A4_A4*%
X73175000Y-171425000D03*
%TO.P,J3,A5,A5_A5*%
X73175000Y-170825000D03*
%TO.P,J3,A6,A6_A6*%
X73175000Y-170225000D03*
%TO.P,J3,A7,A7_A7*%
X73175000Y-169625000D03*
%TO.P,J3,A8,A8_A8*%
X73175000Y-169025000D03*
%TO.P,J3,A9,A9_A9*%
X73175000Y-168425000D03*
%TO.P,J3,A10,A10_A10*%
X73175000Y-167825000D03*
%TO.P,J3,A11,A11_A11*%
X73175000Y-167225000D03*
%TO.P,J3,A12,A12_A12*%
X73175000Y-166625000D03*
%TO.P,J3,A13,A13_A13*%
X73175000Y-166025000D03*
%TO.P,J3,A14,A14_A14*%
X73175000Y-165425000D03*
%TO.P,J3,A15,A15_A15*%
X73175000Y-164825000D03*
%TO.P,J3,A16,A16_A16*%
X73175000Y-164225000D03*
%TO.P,J3,A17,A17_A17*%
X73175000Y-163625000D03*
%TO.P,J3,A18,A18_A18*%
X73175000Y-163025000D03*
%TO.P,J3,A19,A19_A19*%
X73175000Y-162425000D03*
%TO.P,J3,A20,A20_A20*%
X73175000Y-161825000D03*
%TO.P,J3,A21,A21_A21*%
X73175000Y-161225000D03*
%TO.P,J3,A22,A22_A22*%
X73175000Y-160625000D03*
%TO.P,J3,A23,A23_A23*%
X73175000Y-160025000D03*
%TO.P,J3,A24,A24_A24*%
X73175000Y-159425000D03*
%TO.P,J3,A25,A25_A25*%
X73175000Y-158825000D03*
%TO.P,J3,A26,A26_A26*%
X73175000Y-158225000D03*
%TO.P,J3,A27,A27_A27*%
X73175000Y-157625000D03*
%TO.P,J3,A28,A28_A28*%
X73175000Y-157025000D03*
%TO.P,J3,A29,A29_A29*%
X73175000Y-153015000D03*
%TO.P,J3,A30,A30_A30*%
X73175000Y-152415000D03*
%TO.P,J3,A31,A31_A31*%
X73175000Y-151815000D03*
%TO.P,J3,A32,A32_A32*%
X73175000Y-151215000D03*
%TO.P,J3,A33,A33_A33*%
X73175000Y-150615000D03*
%TO.P,J3,A34,A34_A34*%
X73175000Y-150015000D03*
%TO.P,J3,A35,A35_A35*%
X73175000Y-149415000D03*
%TO.P,J3,A36,A36_A36*%
X73175000Y-148815000D03*
%TO.P,J3,A37,A37_A37*%
X73175000Y-148215000D03*
%TO.P,J3,A38,A38_A38*%
X73175000Y-147615000D03*
%TO.P,J3,A39,A39_A39*%
X73175000Y-147015000D03*
%TO.P,J3,A40,A40_A40*%
X73175000Y-146415000D03*
%TO.P,J3,A41,A41_A41*%
X73175000Y-145815000D03*
%TO.P,J3,A42,A42_A42*%
X73175000Y-145215000D03*
%TO.P,J3,B1,B1_B1*%
X76125000Y-173225000D03*
%TO.P,J3,B2,B2_B2*%
X76125000Y-172625000D03*
%TO.P,J3,B3,B3_B3*%
X76125000Y-172025000D03*
%TO.P,J3,B4,B4_B4*%
X76125000Y-171425000D03*
%TO.P,J3,B5,B5_B5*%
X76125000Y-170825000D03*
%TO.P,J3,B6,B6_B6*%
X76125000Y-170225000D03*
%TO.P,J3,B7,B7_B7*%
X76125000Y-169625000D03*
%TO.P,J3,B8,B8_B8*%
X76125000Y-169025000D03*
%TO.P,J3,B9,B9_B9*%
X76125000Y-168425000D03*
%TO.P,J3,B10,B10_B10*%
X76125000Y-167825000D03*
%TO.P,J3,B11,B11_B11*%
X76125000Y-167225000D03*
%TO.P,J3,B12,B12_B12*%
X76125000Y-166625000D03*
%TO.P,J3,B13,B13_B13*%
X76125000Y-166025000D03*
%TO.P,J3,B14,B14_B14*%
X76125000Y-165425000D03*
%TO.P,J3,B15,B15_B15*%
X76125000Y-164825000D03*
%TO.P,J3,B16,B16_B16*%
X76125000Y-164225000D03*
%TO.P,J3,B17,B17_B17*%
X76125000Y-163625000D03*
%TO.P,J3,B18,B18_B18*%
X76125000Y-163025000D03*
%TO.P,J3,B19,B19_B19*%
X76125000Y-162425000D03*
%TO.P,J3,B20,B20_B20*%
X76125000Y-161825000D03*
%TO.P,J3,B21,B21_B21*%
X76125000Y-161225000D03*
%TO.P,J3,B22,B22_B22*%
X76125000Y-160625000D03*
%TO.P,J3,B23,B23_B23*%
X76125000Y-160025000D03*
%TO.P,J3,B24,B24_B24*%
X76125000Y-159425000D03*
%TO.P,J3,B25,B25_B25*%
X76125000Y-158825000D03*
%TO.P,J3,B26,B26_B26*%
X76125000Y-158225000D03*
%TO.P,J3,B27,B27_B27*%
X76125000Y-157625000D03*
%TO.P,J3,B28,B28_B28*%
X76125000Y-157025000D03*
%TO.P,J3,B29,B29_B29*%
X76125000Y-153015000D03*
%TO.P,J3,B30,B30_B30*%
X76125000Y-152415000D03*
%TO.P,J3,B31,B31_B31*%
X76125000Y-151815000D03*
%TO.P,J3,B32,B32_B32*%
X76125000Y-151215000D03*
%TO.P,J3,B33,B33_B33*%
X76125000Y-150615000D03*
%TO.P,J3,B34,B34_B34*%
X76125000Y-150015000D03*
%TO.P,J3,B35,B35_B35*%
X76125000Y-149415000D03*
%TO.P,J3,B36,B36_B36*%
X76125000Y-148815000D03*
%TO.P,J3,B37,B37_B37*%
X76125000Y-148215000D03*
%TO.P,J3,B38,B38_B38*%
X76125000Y-147615000D03*
%TO.P,J3,B39,B39_B39*%
X76125000Y-147015000D03*
%TO.P,J3,B40,B40_B40*%
X76125000Y-146415000D03*
%TO.P,J3,B41,B41_B41*%
X76125000Y-145815000D03*
%TO.P,J3,B42,B42_B42*%
X76125000Y-145215000D03*
%TO.P,J3,SH1,SHIELD_SH1*%
X68025000Y-175320000D03*
%TO.P,J3,SH2,SHIELD__1_SH2*%
X68025000Y-154765000D03*
%TO.P,J3,SH3,SHIELD__2_SH3*%
X68025000Y-143045000D03*
%TD*%
D10*
%TO.C,C21*%
%TO.CFtp,C_1206_3216Metric*%
%TO.CVal,0.1uF*%
%TO.CLbN,Capacitor_SMD*%
%TO.CMnt,SMD*%
%TO.CRot,-90*%
X94125000Y-174650000D03*
D11*
X95270000Y-172355000D02*
X95270000Y-176945000D01*
X92980000Y-176945000D01*
X92980000Y-172355000D01*
X95270000Y-172355000D01*
D12*
%TO.P,C21,1*%
X94125000Y-173175000D03*
D13*
%TO.P,C21,2*%
X94125000Y-176125000D03*
%TD*%
D10*
%TO.C,C20*%
%TO.CFtp,CP_EIA-7343-30_AVX-N_HandSolder*%
%TO.CVal,100uF*%
%TO.CLbN,Capacitor_Tantalum_SMD*%
%TO.CMnt,SMD*%
%TO.CRot,-90*%
X83125000Y-175332500D03*
D11*
X85520000Y-170757500D02*
X85520000Y-179907500D01*
X80730000Y-179907500D01*
X80730000Y-170757500D01*
X85520000Y-170757500D01*
D12*
%TO.P,C20,1*%
X83125000Y-172125000D03*
D13*
%TO.P,C20,2*%
X83125000Y-178540000D03*
%TD*%
D10*
%TO.C,R1*%
%TO.CFtp,R_1206_3216Metric*%
%TO.CVal,2\u002C2KR*%
%TO.CLbN,Resistor_SMD*%
%TO.CMnt,SMD*%
%TO.CRot,180*%
X101160000Y-171617500D03*
D11*
X103435000Y-170492500D02*
X103435000Y-172742500D01*
X98885000Y-172742500D01*
X98885000Y-170492500D01*
X103435000Y-170492500D01*
D12*
%TO.P,R1,1*%
X102622500Y-171617500D03*
D13*
%TO.P,R1,2*%
X99697500Y-171617500D03*
%TD*%
D10*
%TO.C,D1*%
%TO.CFtp,LED_1206_3216Metric*%
%TO.CVal,LED*%
%TO.CLbN,LED_SMD*%
%TO.CMnt,SMD*%
%TO.CRot,90*%
X102625000Y-175772500D03*
D11*
X103750000Y-173497500D02*
X103750000Y-178047500D01*
X101500000Y-178047500D01*
X101500000Y-173497500D01*
X103750000Y-173497500D01*
D12*
%TO.P,D1,1,K_1*%
X102625000Y-177172500D03*
D13*
%TO.P,D1,2,A_2*%
X102625000Y-174372500D03*
%TD*%
M02*
